<svg height="16" viewBox="0 0 16 16" width="16" xmlns="http://www.w3.org/2000/svg"><path d="m10.3180195 3.6109127 3.5355339 3.53553391c.1952621.19526215.1952621.51184463 0 .70710678l-3.5355339 3.53553391c-.1952622.1952621-.51184465.1952621-.7071068 0-.19526214-.1952621-.19526214-.5118446 0-.7071068l2.6810873-2.68251441-9.792.00053391c-.24545989 0-.44960837-.17687516-.49194433-.41012437l-.00805567-.08987563c0-.24545989.17687516-.44960837.41012437-.49194433l.08987563-.00805567 9.792-.00053391-2.6810873-2.68144661c-.19526214-.19526214-.19526214-.51184463 0-.70710678.19526215-.19526214.5118446-.19526214.7071068 0z" fill="#212121"/></svg>